{"title":"The Sunset Limited 2011 HDTV 1080i MPEG2 DD5.1-CtrlHD BOZX","uid":6172340,"size":9234813988,"categoryP":"video","categoryS":"hd___movies","magnet":"?xt=urn:btih:08d5a4f7d8723d7ec7180b43baa83e885ed37258&amp;dn=The+Sunset+Limited+2011+HDTV+1080i+MPEG2+DD5.1-CtrlHD+BOZX&amp;tr=udp%3A%2F%2Ftracker.openbittorrent.com%3A80&amp;tr=udp%3A%2F%2Fopen.demonii.com%3A1337&amp;tr=udp%3A%2F%2Ftracker.coppersurfer.tk%3A6969&amp;tr=udp%3A%2F%2Fexodus.desync.com%3A6969","seeders":0,"leechers":3,"uploader":"BOZX","files":1,"time":1297631128,"description":"The Sunset Limited (2011)\n\nIMDB                             : &lt;a href=&quot; http://www.imdb.com/title/tt1510938/&quot; rel=&quot;nofollow&quot; target=&quot;_NEW&quot;&gt; http://www.imdb.com/title/tt1510938/&lt;/a&gt;\n\nGeneral\nID                               : 1\nComplete name                    : H:\\The Sunset Limited 2011 HDTV 1080i MPEG2 DD5.1-CtrlHD.ts\nFormat                           : MPEG-TS\nFile size                        : 8.60 GiB\nDuration                         : 1h 30mn\nOverall bit rate                 : 13.5 Mbps\n\nVideo\nID                               : 33 (0x21)\nMenu ID                          : 1 (0x1)\nFormat                           : MPEG Video\nFormat version                   : Version 2\nFormat profile                   : Main@High\nFormat settings, BVOP            : Yes\nFormat settings, Matrix          : Default\nDuration                         : 1h 30mn\nBit rate mode                    : Variable\nBit rate                         : 12.2 Mbps\nNominal bit rate                 : 18.0 Mbps\nWidth                            : 1 920 pixels\nHeight                           : 1 080 pixels\nDisplay aspect ratio             : 16:9\nFrame rate                       : 29.970 fps\nResolution                       : 8 bits\nColorimetry                      : 4:2:0\nBits/(Pixel*Frame)               : 0.197\nStream size                      : 7.76 GiB (90%)\n\nAudio\nID                               : 36 (0x24)\nMenu ID                          : 1 (0x1)\nFormat                           : AC-3\nFormat/Info                      : Audio Coding 3\nDuration                         : 1h 30mn\nBit rate mode                    : Constant\nBit rate                         : 384 Kbps\nChannel(s)                       : 6 channels\nChannel positions                : Front: L C R, Surround: L R, LFE\nSampling rate                    : 48.0 KHz\nStream size                      : 250 MiB (3%)\nLanguage                         : English\n\n\nScreens :\n\n &lt;a href=&quot; http://www.phyrefile.com/image/view/wT0XSUUdhCahQY59&quot; rel=&quot;nofollow&quot; target=&quot;_NEW&quot;&gt; http://www.phyrefile.com/image/view/wT0XSUUdhCahQY59&lt;/a&gt;\n\n &lt;a href=&quot; http://www.phyrefile.com/image/view/UE55i8u62Bknk989&quot; rel=&quot;nofollow&quot; target=&quot;_NEW&quot;&gt; http://www.phyrefile.com/image/view/UE55i8u62Bknk989&lt;/a&gt;\n\n &lt;a href=&quot; http://www.phyrefile.com/image/view/ImoEN43pqmhmoIOA&quot; rel=&quot;nofollow&quot; target=&quot;_NEW&quot;&gt; http://www.phyrefile.com/image/view/ImoEN43pqmhmoIOA&lt;/a&gt;\n\n &lt;a href=&quot; http://www.phyrefile.com/image/view/ulm80ByHmRX57Pi1&quot; rel=&quot;nofollow&quot; target=&quot;_NEW&quot;&gt; http://www.phyrefile.com/image/view/ulm80ByHmRX57Pi1&lt;/a&gt;\n\n &lt;a href=&quot; http://www.phyrefile.com/image/view/QvNtw49n7v2ZoH0R&quot; rel=&quot;nofollow&quot; target=&quot;_NEW&quot;&gt; http://www.phyrefile.com/image/view/QvNtw49n7v2ZoH0R&lt;/a&gt;\n\n &lt;a href=&quot; http://www.phyrefile.com/image/view/OPxy6Nox7Q7tNHTZ&quot; rel=&quot;nofollow&quot; target=&quot;_NEW&quot;&gt; http://www.phyrefile.com/image/view/OPxy6Nox7Q7tNHTZ&lt;/a&gt;","torrent":{"xt":"urn:btih:08d5a4f7d8723d7ec7180b43baa83e885ed37258","amp;dn":"The+Sunset+Limited+2011+HDTV+1080i+MPEG2+DD5.1-CtrlHD+BOZX","amp;tr":["udp%3A%2F%2Ftracker.openbittorrent.com%3A80","udp%3A%2F%2Fopen.demonii.com%3A1337","udp%3A%2F%2Ftracker.coppersurfer.tk%3A6969","udp%3A%2F%2Fexodus.desync.com%3A6969"],"infoHash":"08d5a4f7d8723d7ec7180b43baa83e885ed37258","infoHashBuffer":{"type":"Buffer","data":[8,213,164,247,216,114,61,126,199,24,11,67,186,168,62,136,94,211,114,88]},"announce":[],"urlList":[]}}